<?xml version="1.0" encoding="UTF-8"?>
<svg version="1.1" xmlns="http://www.w3.org/2000/svg" width="512" height="512">
<path d="M0 0 C0.85854731 -0.00438225 1.71709463 -0.00876451 2.60165852 -0.01327956 C5.48396823 -0.0266538 8.36624736 -0.03284347 11.24858093 -0.03897095 C13.31347796 -0.04687332 15.37837362 -0.05514235 17.44326782 -0.06375122 C24.23211855 -0.08996689 31.02097542 -0.10528352 37.80986023 -0.11953735 C40.14977205 -0.12489818 42.48968383 -0.1302757 44.82959557 -0.13566971 C54.56873319 -0.1573023 64.30786916 -0.17603582 74.04702473 -0.1872921 C87.9849759 -0.20350861 101.92264729 -0.23662643 115.860493 -0.29369295 C125.66964411 -0.3324784 135.47872067 -0.35193527 145.2879464 -0.35721266 C151.14087604 -0.36085576 156.99350724 -0.37276544 162.84635353 -0.4053154 C168.36138321 -0.43554552 173.87593624 -0.44165468 179.39103127 -0.42993164 C181.40528649 -0.42971212 183.41956479 -0.43791546 185.43374252 -0.45558548 C202.59159039 -0.59780128 216.07141531 1.57594522 229.57157898 13.15390015 C230.22642273 13.69788452 230.88126648 14.2418689 231.55595398 14.80233765 C240.69238842 23.08981137 245.93848671 35.08947226 247.57157898 47.15390015 C247.71128699 50.59420513 247.69799418 54.03100809 247.68510437 57.47372437 C247.6852504 58.49872543 247.68539642 59.5237265 247.68554688 60.57978821 C247.68485214 63.95607647 247.67708026 67.33230906 247.66923523 70.70858765 C247.66736949 73.05413788 247.66594632 75.3996885 247.66494751 77.74523926 C247.6611346 83.91013673 247.65131478 90.07501054 247.64024353 96.23989868 C247.63000305 102.53414591 247.62544424 108.82839698 247.6204071 115.12265015 C247.60969141 127.46641053 247.59262971 139.81015337 247.57157898 152.15390015 C248.35927673 152.45699097 249.14697449 152.76008179 249.95854187 153.07235718 C258.37594535 156.55634273 262.228735 165.20062369 265.57157898 173.15390015 C266.70314465 176.68023126 266.68600486 179.98020659 266.66923523 183.66952515 C266.66601257 184.91991577 266.66278992 186.1703064 266.6594696 187.45858765 C266.6510907 188.76054077 266.64271179 190.0624939 266.63407898 191.40390015 C266.62956726 192.72132202 266.62505554 194.0387439 266.6204071 195.39608765 C266.60862214 198.64873756 266.59216909 201.90129599 266.57157898 205.15390015 C267.50054993 205.13033447 267.50054993 205.13033447 268.44828796 205.10629272 C271.30178903 205.04325985 274.15514289 205.00469577 277.00907898 204.96640015 C277.9829657 204.94126343 278.95685242 204.91612671 279.96025085 204.89022827 C291.51409673 204.7743034 299.16951706 208.07847404 307.48564148 215.9703064 C315.99913033 224.9366404 317.73649115 235.12825478 317.66923523 247.0484314 C317.66711281 248.46946419 317.66711281 248.46946419 317.66494751 249.91920471 C317.65936509 252.9349691 317.6468158 255.95065833 317.63407898 258.96640015 C317.62906171 261.0152272 317.6244992 263.06405541 317.6204071 265.11288452 C317.60940141 270.12658521 317.59214886 275.14022995 317.57157898 280.15390015 C318.65954773 280.1178064 319.74751648 280.08171265 320.86845398 280.04452515 C325.99618336 280.19597707 328.57434024 282.25772722 332.21195984 285.71127319 C334.32272556 289.5033743 334.05920086 293.21252541 334.07548523 297.4859314 C334.08547043 298.39590378 334.09545563 299.30587616 334.10574341 300.24342346 C334.12091695 302.1673936 334.12796944 304.0914425 334.12748718 306.01547241 C334.13403434 308.94641718 334.18848092 311.87394749 334.2454071 314.80429077 C334.25421274 316.67732611 334.26016457 318.55037748 334.26298523 320.4234314 C334.28454178 321.29345291 334.30609833 322.16347443 334.32830811 323.05986023 C334.2645283 328.77753029 333.022627 331.72764705 329.05508423 335.86708069 C325.4971086 338.95333352 322.08558721 338.22670673 317.57157898 338.15390015 C317.58728943 339.39889282 317.60299988 340.6438855 317.6191864 341.92660522 C317.67391183 346.59141446 317.70808265 351.25619592 317.7363739 355.92123413 C317.75136414 357.93169951 317.77176326 359.94213273 317.79789734 361.95248413 C317.99958725 377.87807733 317.92276512 391.08614801 306.53251648 403.34921265 C297.6477634 411.85722708 288.04352481 414.33095928 275.98954773 414.2515564 C274.76827934 414.24943398 274.76827934 414.24943398 273.52233887 414.24726868 C270.93454742 414.24169331 268.34684406 414.22914539 265.75907898 414.21640015 C263.99931461 414.21138196 262.23954887 414.20681961 260.4797821 414.20272827 C256.17701404 414.19173196 251.87431142 414.17448435 247.57157898 414.15390015 C247.58157173 415.07232697 247.58157173 415.07232697 247.59176636 416.00930786 C247.65860442 422.43424174 247.7035789 428.85907541 247.7363739 435.28427124 C247.75137611 437.67591368 247.77178444 440.067529 247.79789734 442.45907593 C247.83465941 445.91471079 247.85139162 449.36997907 247.86454773 452.82577515 C247.88003159 453.87940247 247.89551544 454.93302979 247.91146851 456.01858521 C247.91496491 471.75984736 242.80073784 485.56623467 231.85282898 496.9703064 C221.58083431 506.80257527 209.06458537 512.47697579 194.76893616 512.42132568 C193.90641444 512.4258568 193.04389272 512.43038791 192.15523398 512.43505633 C189.27752171 512.44767268 186.39999937 512.44608173 183.52226257 512.44442749 C181.45367694 512.45041458 179.38509354 512.45722055 177.31651306 512.46478271 C171.70465146 512.48243443 166.09285087 512.48713784 160.48096418 512.48841429 C156.97098757 512.48983725 153.46102639 512.49410968 149.95105362 512.49940872 C137.69450651 512.51790837 125.43800287 512.52607968 113.18144226 512.52450562 C101.77585613 512.52330521 90.37045955 512.54438809 78.96492136 512.57599294 C69.15827975 512.60219396 59.35169988 512.61287126 49.54502356 512.6115948 C43.69449742 512.61108616 37.84413965 512.61671456 31.99364853 512.6379509 C26.48600412 512.65739689 20.97868755 512.65741423 15.47103119 512.64291763 C13.45755913 512.64083612 11.44406622 512.6454909 9.43062973 512.65763855 C-3.76127821 512.73202871 -16.10914946 512.43589934 -27.42842102 504.65390015 C-28.69685852 503.8031189 -28.69685852 503.8031189 -29.99092102 502.93515015 C-41.06005898 494.84616471 -47.37652245 485.17785983 -51.42842102 472.15390015 C-51.69883887 471.29528344 -51.69883887 471.29528344 -51.9747197 470.41932094 C-52.60178595 467.28825464 -52.55816534 464.28813337 -52.5626421 461.09466743 C-52.56499433 460.38006434 -52.56734656 459.66546124 -52.56977007 458.92920351 C-52.57645445 456.52224516 -52.57600201 454.11534087 -52.57559204 451.70837402 C-52.57889103 449.97010811 -52.58261668 448.23184296 -52.58673352 446.49357879 C-52.59675796 441.70677791 -52.60047104 436.91998956 -52.60312283 432.13317966 C-52.60702467 426.97410104 -52.61660322 421.81503236 -52.62533569 416.65596008 C-52.64510543 404.1902655 -52.6551678 391.72457009 -52.66406348 379.25886375 C-52.6684463 373.38808916 -52.6738132 367.51731547 -52.67905235 361.6465416 C-52.69606655 342.12892659 -52.71055994 322.61131215 -52.71780109 303.09369087 C-52.71971099 298.02782312 -52.72163132 292.96195538 -52.72358704 287.89608765 C-52.72407078 286.63699195 -52.72455452 285.37789625 -52.72505292 284.08064614 C-52.73335025 263.69167253 -52.75868131 243.30275765 -52.79116771 222.91380967 C-52.8242517 201.97900452 -52.84225114 181.0442292 -52.84544533 160.10939777 C-52.84760939 148.35613991 -52.85634256 136.60296763 -52.88190651 124.84973526 C-52.90363191 114.83814333 -52.9116549 104.82665778 -52.90193973 94.81504495 C-52.89740015 89.70952779 -52.89926139 84.60423002 -52.91870117 79.49874306 C-52.93637028 74.81770883 -52.93530473 70.13705344 -52.91980388 65.45601498 C-52.91743347 63.76948552 -52.92172169 62.08292958 -52.93363253 60.39644052 C-53.05063412 42.72420417 -49.21297601 28.8916963 -37.42842102 15.15390015 C-26.60402816 5.50283842 -14.55179973 0.00902028 0 0 Z M-27.80342102 28.52890015 C-37.38940782 40.08619875 -37.72557251 52.34067791 -37.68911743 66.80328369 C-37.6921404 68.50263102 -37.69603061 70.201977 -37.70071 71.90132058 C-37.71097999 76.55722165 -37.70881072 81.21304563 -37.7045294 85.86895299 C-37.70206038 90.89564546 -37.71107853 95.92231945 -37.71856689 100.94900513 C-37.7313109 110.79142269 -37.73310796 120.63381297 -37.73076663 130.4762374 C-37.72898302 138.47698083 -37.73073404 146.47771597 -37.73499107 154.4784584 C-37.73558626 155.61751187 -37.73618145 156.75656534 -37.73679468 157.93013559 C-37.73800644 160.24418274 -37.73922057 162.55822989 -37.74043705 164.87227704 C-37.75131139 186.56937911 -37.74915057 208.26646564 -37.74305221 229.96356858 C-37.73788287 249.80782101 -37.74913914 269.65202435 -37.76815043 289.49626707 C-37.78752738 309.87864342 -37.79578509 330.26099656 -37.79202718 350.64338219 C-37.79011495 362.08401678 -37.7926048 373.52460959 -37.80674171 384.96523666 C-37.81865463 394.70449922 -37.82006135 404.44369427 -37.80795155 414.18295775 C-37.80206234 419.15038055 -37.80096468 424.11767987 -37.81295395 429.08509445 C-37.82381063 433.63619677 -37.82071188 438.18707249 -37.80669226 442.7381642 C-37.80404477 444.38074479 -37.80641353 446.02334313 -37.81442813 447.6659063 C-37.87896639 461.88456673 -36.30116568 474.40640608 -26.42451477 485.38046265 C-17.4238761 493.97856828 -7.53075778 497.30404733 4.71611023 497.30107117 C5.53200402 497.30474786 6.34789782 497.30842454 7.18851566 497.31221265 C9.92037652 497.32321876 12.6521993 497.32708814 15.38407898 497.3309021 C17.34399536 497.33716919 19.30391056 497.34381621 21.26382446 497.35081482 C27.69973426 497.37183262 34.13564422 497.38221673 40.57157898 497.3921814 C42.79050204 497.39623014 45.00942497 497.4003471 47.22834778 497.40453148 C57.6566587 497.42358002 68.08496257 497.43781042 78.51328754 497.44614345 C90.53303835 497.45590772 102.55260461 497.48220759 114.57229042 497.52264434 C123.87358057 497.55285687 133.17481799 497.56761729 142.47615623 497.57092446 C148.0260322 497.57326952 153.57571093 497.58215893 159.12553406 497.60738564 C164.35243698 497.63076056 169.57901413 497.63486179 174.80595589 497.62462425 C176.71622874 497.62413103 178.62651814 497.63038788 180.53674126 497.6441803 C194.70359699 497.74068166 208.36675019 497.02178913 219.57157898 487.15390015 C231.08294047 475.45753464 232.75983278 462.5635106 232.66923523 446.8687439 C232.66782028 445.92704849 232.66640533 444.98535309 232.66494751 444.01512146 C232.6594002 441.04051382 232.64685785 438.0659846 232.63407898 435.09140015 C232.62905716 433.06080228 232.62449545 431.03020323 232.6204071 428.99960327 C232.6094481 424.05100587 232.5922205 419.10246625 232.57157898 414.15390015 C231.298544 414.15170031 231.298544 414.15170031 229.99979115 414.14945602 C209.30737856 414.11233346 188.61512905 414.05324663 167.9228487 413.96999741 C157.9160264 413.93026237 147.90928211 413.89784181 137.90238953 413.88290405 C129.17591434 413.86985878 120.4496112 413.842821 111.72323292 413.79928708 C107.10670098 413.77673676 102.49038073 413.76098559 97.87378883 413.7620163 C93.51933661 413.76276673 89.16535121 413.74466356 84.8110199 413.71273232 C83.22168295 413.70428531 81.63229331 413.70244761 80.04294395 413.70809746 C67.19996505 413.74763443 54.17249082 412.64496174 44.57157898 403.15390015 C34.02700212 391.74904312 33.98835978 379.71912142 34.05400085 365.00765991 C34.04857472 362.96494041 34.04144931 360.92222483 34.03276062 358.8795166 C34.01458174 353.35258866 34.02157272 347.82596062 34.03427696 342.29902768 C34.04443416 336.50259191 34.03500361 330.70618109 34.0287323 324.90974426 C34.02146324 315.17622285 34.03102358 305.442823 34.0500946 295.70932007 C34.07185571 284.47345467 34.06481439 273.23787972 34.04278898 262.00202137 C34.0246066 252.33800834 34.02209074 242.67408249 34.03254366 233.01005787 C34.03876375 227.2457322 34.03965522 221.48154281 34.02639771 215.71722603 C34.01479876 210.29569736 34.02293884 204.87454117 34.04597473 199.45305252 C34.0512405 197.46938761 34.04978481 195.48569107 34.04092407 193.50203896 C33.98951036 180.81752741 34.29497752 169.33994915 42.67314148 159.00546265 C48.42560767 153.39503266 56.3018532 148.30270807 64.55813599 148.10675049 C66.7242478 148.22162601 68.87930908 148.39635195 71.04032898 148.58358765 C88.07627195 150.21093939 88.07627195 150.21093939 103.66777039 144.98544312 C108.58029397 139.42755073 111.52988234 132.96271468 114.30741882 126.13876343 C116.02330929 122.08730016 118.24857677 118.54320597 120.69657898 114.90390015 C121.3385321 113.8674939 121.98048523 112.83108765 122.64189148 111.76327515 C125.78567075 107.51217281 129.45893809 104.58068365 134.57157898 103.15390015 C143.61922488 102.42425128 149.85109787 106.08779094 157.32157898 110.77890015 C157.96095398 111.16690796 158.60032898 111.55491577 159.25907898 111.9546814 C167.62641831 117.17603291 175.12867392 123.1152959 181.29814148 130.8453064 C190.08593129 142.2282689 190.08593129 142.2282689 202.66737366 147.99226379 C207.07646033 148.29868258 211.43982193 148.07175549 215.84501648 147.8062439 C217.37830289 147.75374715 218.91176513 147.70614861 220.44535828 147.6635437 C224.15782748 147.54993536 227.86353316 147.37070113 231.57157898 147.15390015 C231.6644809 134.17517524 231.73544649 121.19653016 231.77882767 108.21753979 C231.79965416 102.19010311 231.82788169 96.16289485 231.87333679 90.1355896 C231.91697042 84.31301456 231.94075319 78.4906585 231.95108795 72.66793251 C231.95844791 70.45249297 231.97281986 68.23706467 231.99449921 66.02171898 C232.13521237 51.03948258 231.94196288 39.25970601 221.77861023 27.38046265 C216.22808717 21.78081991 210.01085597 18.54959952 202.57157898 16.15390015 C202.00222437 15.96730457 201.43286976 15.780709 200.84626198 15.58845901 C197.40852336 14.93170825 193.97583445 15.0095219 190.489151 15.01345825 C189.66791138 15.01048713 188.84667176 15.00751601 188.0005461 15.00445485 C185.2447538 14.99577346 182.48900497 14.99426006 179.73320007 14.99276733 C177.75871182 14.98813869 175.78422447 14.98311396 173.80973816 14.97772217 C168.44170652 14.96459881 163.0736874 14.95815308 157.70564222 14.95371151 C154.35065639 14.95078007 150.99567397 14.94667508 147.64068985 14.94220734 C137.14029817 14.92853123 126.6399143 14.9188657 116.13951433 14.91500545 C104.02523665 14.9105273 91.91107195 14.89299114 79.79682863 14.86400485 C70.42936325 14.84237049 61.06192962 14.83230019 51.69443953 14.83096433 C46.10164715 14.82991736 40.50896095 14.82403278 34.91619492 14.80614471 C29.65159825 14.78963426 24.38718723 14.78752303 19.12257385 14.79628372 C17.19492215 14.79705256 15.26726034 14.79273169 13.33963394 14.78282547 C-2.67902396 14.70536183 -16.24934282 16.1189643 -27.80342102 28.52890015 Z M136.57157898 118.15390015 C133.41218788 123.00710929 130.26403384 127.86731207 127.12919617 132.73641968 C126.10586754 134.32466421 125.08053679 135.91162087 124.05302429 137.49716187 C122.63431945 139.69009032 121.22659502 141.88968364 119.82157898 144.09140015 C119.15859802 145.11040405 119.15859802 145.11040405 118.48222351 146.1499939 C117.4496368 147.78008631 116.50125387 149.46300063 115.57157898 151.15390015 C115.90157898 151.81390015 116.23157898 152.47390015 116.57157898 153.15390015 C126.47157898 143.25390015 136.37157898 133.35390015 146.57157898 123.15390015 C142.53472366 119.11704483 141.83918817 118.63277371 136.57157898 118.15390015 Z M156.97055435 134.25994015 C156.45066311 134.78221974 155.93077187 135.30449934 155.39512634 135.84260559 C154.79222275 136.43856537 154.18931915 137.03452515 153.56814575 137.64854431 C152.91862442 138.3108757 152.26910309 138.97320709 151.59989929 139.65560913 C150.90681168 140.34650635 150.21372406 141.03740356 149.49963379 141.74923706 C147.20657429 144.03998118 144.92813309 146.3447048 142.64970398 148.6499939 C141.06438429 150.24023467 139.47825297 151.82966671 137.89134216 153.4183197 C134.56659946 156.75070945 131.24843325 160.08946126 127.93534851 163.43344116 C123.67751001 167.73090309 119.40892549 172.01747942 115.1360817 176.30001736 C111.07457113 180.37147732 107.01805897 184.44790116 102.96220398 188.5249939 C102.18209206 189.30850157 101.40198013 190.09200924 100.59822845 190.89925957 C98.40461683 193.10438534 96.21454877 195.31296362 94.02568054 197.52279663 C93.36806229 198.18310379 92.71044403 198.84341095 92.03289795 199.52372742 C89.01514627 201.96496857 89.01514627 201.96496857 87.57157898 205.15390015 C100.78454888 205.62018055 113.99552106 205.97406928 127.21508408 206.19014359 C133.35610524 206.29393311 139.49144556 206.43429822 145.62919617 206.66268921 C174.79804567 209.31819308 174.79804567 209.31819308 200.96406937 199.45077133 C205.27812768 195.42616765 209.42578747 190.70608903 211.57157898 185.15390015 C211.42739919 181.11872112 208.85004532 179.04593706 206.11528015 176.29354858 C205.65338791 175.82479309 205.19149567 175.3560376 204.71560669 174.87307739 C203.18952207 173.32871896 201.65263411 171.79567441 200.11454773 170.26327515 C199.04901975 169.19318641 197.98386475 168.12272615 196.91906738 167.0519104 C194.68707047 164.81098181 192.44948433 162.575821 190.20805359 160.34432983 C187.33436901 157.48214855 184.47686624 154.60439983 181.62356091 151.72192001 C179.42842052 149.50844959 177.22406226 147.30434523 175.01688576 145.10288239 C173.95924018 144.04539034 172.90470178 142.98478128 171.85333824 141.9210434 C170.38362559 140.43647912 168.90177348 138.96520212 167.4160614 137.49667358 C166.57524521 136.65602356 165.73442902 135.81537354 164.86813354 134.94924927 C162.1281999 132.80728515 160.02319151 132.15107889 156.97055435 134.25994015 Z M53.57157898 170.15390015 C49.69702594 174.83471856 48.31140338 180.11782614 48.57157898 186.15390015 C49.96669555 192.9195982 53.57694259 197.96270279 59.13407898 202.02890015 C61.72945333 203.43327226 61.72945333 203.43327226 65.57157898 203.15390015 C67.37005883 201.16718264 67.37005883 201.16718264 68.89189148 198.46640015 C69.50540466 197.46423462 70.11891785 196.46206909 70.75102234 195.42953491 C71.39305603 194.34857544 72.03508972 193.26761597 72.69657898 192.15390015 C74.03369777 189.95460795 75.37093777 187.75538945 76.70829773 185.5562439 C77.68935486 183.92598267 77.68935486 183.92598267 78.69023132 182.26278687 C81.65099454 177.37018905 84.71719541 172.54532684 87.77714539 167.71444702 C89.71957623 165.11947039 89.71957623 165.11947039 90.57157898 162.15390015 C87.42582691 162.09493147 84.28022038 162.05998411 81.13407898 162.02890015 C80.25558289 162.01214233 79.37708679 161.99538452 78.4719696 161.9781189 C68.63791769 161.90554287 60.78909984 163.06701314 53.57157898 170.15390015 Z M214.57157898 162.15390015 C214.95829773 162.60120483 215.34501648 163.04850952 215.74345398 163.5093689 C216.82853771 164.76903292 217.90628165 166.03504506 218.97782898 167.3062439 C220.20104581 168.72433596 221.49733494 170.07965611 222.82157898 171.40390015 C225.9200412 176.27291221 226.90625977 181.77920221 226.33720398 187.5171814 C224.72161478 193.66297005 220.77641686 197.69818253 216.43486023 202.18515015 C214.45701484 203.82316882 214.45701484 203.82316882 214.57157898 205.15390015 C226.45157898 205.15390015 238.33157898 205.15390015 250.57157898 205.15390015 C250.63345398 200.82265015 250.69532898 196.49140015 250.75907898 192.02890015 C250.78639099 190.67393433 250.813703 189.31896851 250.84184265 187.92294312 C250.85308167 186.30089966 250.85308167 186.30089966 250.86454773 184.64608765 C250.8881134 182.99649048 250.8881134 182.99649048 250.91215515 181.31356812 C250.3085187 175.71337958 247.45687587 171.14420506 243.57157898 167.15390015 C238.44750467 164.00549985 233.52224701 162.01033448 227.46220398 162.0562439 C226.33105164 162.06107788 226.33105164 162.06107788 225.17704773 162.06600952 C224.39974304 162.07438843 223.62243835 162.08276733 222.82157898 162.09140015 C222.02880554 162.09591187 221.2360321 162.10042358 220.41923523 162.10507202 C218.4699839 162.1168145 216.5207716 162.13474869 214.57157898 162.15390015 Z M48.57157898 214.15390015 C48.50146019 235.65942262 48.44857671 257.16492621 48.41614246 278.67053986 C48.40068159 288.65624313 48.37960693 298.64187531 48.34526062 308.62753296 C48.31533445 317.33226301 48.29599831 326.03694157 48.2893135 334.74172163 C48.2854067 339.34972476 48.27624136 343.95758062 48.25438881 348.5655365 C48.23397283 352.90587869 48.2277555 357.24601343 48.23225594 361.58639908 C48.23143302 363.17625685 48.22549784 364.76612182 48.21396255 366.35593796 C48.15061654 375.53962773 48.42443641 382.74081493 53.13407898 390.84140015 C62.80471506 400.01610617 74.29387992 398.86060521 86.77519226 398.78500366 C88.93115324 398.79014672 91.08711001 398.79743091 93.24305725 398.8066864 C99.07768617 398.82515687 104.91185649 398.8122899 110.74646616 398.7925961 C116.86061009 398.77617671 122.97472573 398.78502689 129.08888245 398.79011536 C139.35288292 398.79463193 149.61670089 398.77879165 159.88066101 398.75082397 C171.74029362 398.71875714 183.59959743 398.71879596 195.45925343 398.73603874 C206.88017907 398.7519106 218.30098437 398.74516707 229.72190475 398.72810173 C234.57739854 398.72123658 239.43279571 398.72225819 244.28828812 398.72964668 C250.00611576 398.73731645 255.7235698 398.72516033 261.44133377 398.69779778 C263.53752026 398.69092085 265.63374168 398.69080852 267.72992706 398.69801331 C270.59529384 398.70672593 273.45951234 398.69072113 276.32478333 398.66856384 C277.15066802 398.67680461 277.97655272 398.68504538 278.82746422 398.69353586 C285.39269898 398.60008157 290.59089354 396.72603604 295.59501648 392.4078064 C296.26403992 391.5705603 296.26403992 391.5705603 296.94657898 390.71640015 C297.40806335 390.16081421 297.86954773 389.60522827 298.34501648 389.0328064 C301.96006921 383.49509823 301.83757378 378.45412385 301.76689148 372.0406189 C301.76406158 371.07106766 301.76123169 370.10151642 301.75831604 369.10258484 C301.74714889 366.01539609 301.7220505 362.92850075 301.69657898 359.84140015 C301.68654471 357.74439914 301.67741964 355.64739357 301.66923523 353.55038452 C301.64722086 348.41811055 301.61271469 343.28605504 301.57157898 338.15390015 C300.89691589 338.14455444 300.22225281 338.13520874 299.52714539 338.12557983 C296.41626548 338.07129245 293.30679669 337.98776299 290.19657898 337.90390015 C289.13568054 337.88972046 288.0747821 337.87554077 286.98173523 337.8609314 C278.10797975 337.58873031 270.46151629 336.00799513 263.69657898 329.96640015 C257.59912645 323.19305076 255.24016031 315.2041791 255.57157898 306.15390015 C257.09421717 297.49233535 260.91311694 291.37672619 267.39970398 285.5484314 C274.63694619 280.9014971 281.69404329 280.64176722 290.07157898 280.46640015 C291.18017273 280.43223999 292.28876648 280.39807983 293.43095398 280.36288452 C296.14439441 280.28101347 298.85753645 280.2116661 301.57157898 280.15390015 C301.67100428 274.194883 301.74330962 268.23635659 301.79130554 262.27670288 C301.81132928 260.25252869 301.83855665 258.22841167 301.87333679 256.20443726 C301.9222636 253.2824995 301.94464048 250.36133134 301.96220398 247.4390564 C301.98284912 246.54493546 302.00349426 245.65081451 302.02476501 244.729599 C302.02720259 237.78930596 300.64356704 231.52293929 295.85044861 226.26634216 C289.80760292 220.60322322 283.54356405 219.85742555 275.56529236 219.89561462 C274.66883995 219.89193892 273.77238754 219.88826321 272.8487699 219.88447613 C269.85039025 219.8745107 266.85219659 219.87864409 263.85380554 219.88265991 C261.70168359 219.87827197 259.54956333 219.87296957 257.39744568 219.86682129 C252.7648693 219.85532458 248.13233864 219.8498621 243.49974823 219.8489399 C236.17060185 219.8469984 228.84154992 219.82894021 221.51243591 219.80818176 C203.30569551 219.7590019 185.09892944 219.72812224 166.89213562 219.70687866 C152.74660941 219.69034754 138.6011641 219.66750672 124.45569205 219.62385792 C117.17435153 219.60210412 109.89316477 219.59402166 102.61179399 219.59625065 C98.07488842 219.59458064 93.5380827 219.58051166 89.00121307 219.56303787 C86.90264107 219.55745162 84.80404825 219.55694088 82.70547485 219.56197548 C79.83202302 219.5681445 76.95919767 219.55583527 74.08580017 219.53916931 C73.26301268 219.54538113 72.44022519 219.55159294 71.59250474 219.55799299 C65.50900367 219.49406733 60.30506548 218.12446541 54.57157898 216.15390015 C53.37532898 215.76202515 52.17907898 215.37015015 50.94657898 214.96640015 C50.16282898 214.69827515 49.37907898 214.43015015 48.57157898 214.15390015 Z M273.07157898 300.27890015 C271.01701052 304.21682304 270.3757807 307.72102713 270.57157898 312.15390015 C272.17748925 316.88241371 274.41935115 319.41950621 278.57157898 322.15390015 C282.62239207 323.41291669 286.63461828 323.27984335 290.83720398 323.2515564 C291.63060181 323.25014145 292.42399963 323.2487265 293.24143982 323.24726868 C295.7681917 323.2416843 298.29485402 323.22913469 300.82157898 323.21640015 C302.53772353 323.21138313 304.25386947 323.20682057 305.97001648 323.20272827 C310.17059933 323.19257212 314.37098924 323.17299374 318.57157898 323.15390015 C318.57157898 313.91390015 318.57157898 304.67390015 318.57157898 295.15390015 C313.89368155 295.08461697 309.21760036 295.02501253 304.53959656 294.98910522 C302.95196972 294.97412001 301.36438355 294.95372469 299.77690125 294.92758179 C285.54016116 294.31561373 285.54016116 294.31561373 273.07157898 300.27890015 Z " fill="#000000" transform="translate(115.42842102050781,-0.153900146484375)"/>
<path d="M0 0 C0.68677826 -0.00817749 1.37355652 -0.01635498 2.08114624 -0.02478027 C4.34884798 -0.04954264 6.61648732 -0.06613023 8.88427734 -0.08056641 C9.66247204 -0.08589008 10.44066673 -0.09121376 11.24244308 -0.09669876 C15.36474368 -0.12339572 19.48701442 -0.14277814 23.609375 -0.15722656 C27.00613494 -0.17053891 30.40229031 -0.19834553 33.79882812 -0.23925781 C37.91433624 -0.28881897 42.02929827 -0.31337624 46.14509201 -0.32045364 C47.70547834 -0.32712817 49.26585431 -0.34225017 50.82606888 -0.36634445 C59.7289019 -0.49594348 67.62770697 -0.36564426 75.09521484 5.19287109 C79.59406542 10.00247728 80.45070385 15.19943701 80.37646484 21.55615234 C79.79891932 26.97064166 77.51091119 30.81347466 73.65771484 34.56787109 C68.62430024 37.75979255 64.71593922 38.44843931 58.75390625 38.48339844 C58.03290237 38.49011566 57.3118985 38.49683289 56.56904602 38.50375366 C54.1948856 38.52269001 51.82100851 38.52665557 49.44677734 38.52880859 C47.78917323 38.53523943 46.13157026 38.541968 44.47396851 38.54898071 C41.00231292 38.56094245 37.53075676 38.56466266 34.05908203 38.56347656 C29.62160082 38.5632734 25.18476026 38.59057684 20.7474308 38.62502098 C17.32436219 38.64731348 13.90144721 38.65131339 10.47831345 38.65025711 C8.84291755 38.65260948 7.20751719 38.66141247 5.57219315 38.67692184 C3.27944964 38.69663102 0.98808056 38.69072589 -1.3046875 38.67871094 C-2.60642914 38.68156097 -3.90817078 38.68441101 -5.24935913 38.68734741 C-10.67877502 37.95290017 -15.35363102 35.56074282 -18.77978516 31.13037109 C-22.77637249 25.60567684 -22.64157826 19.79889106 -21.90478516 13.19287109 C-19.78371307 7.51534624 -16.25319846 4.03777179 -10.90478516 1.19287109 C-7.29571342 -0.01342173 -3.78421636 0.03924637 0 0 Z M-4.90478516 16.19287109 C-5.56478516 17.51287109 -6.22478516 18.83287109 -6.90478516 20.19287109 C-5.799667 21.80244708 -5.799667 21.80244708 -3.90478516 23.19287109 C-0.95064763 23.64353451 -0.95064763 23.64353451 2.46264648 23.56518555 C4.43467796 23.57452873 4.43467796 23.57452873 6.44654846 23.58406067 C7.88282653 23.57537351 9.3191009 23.56605563 10.75537109 23.55615234 C12.22602844 23.55563375 13.69668648 23.55615144 15.16734314 23.55766296 C18.24830483 23.55757326 21.32900473 23.54714751 24.40991211 23.52905273 C28.36351772 23.50634549 32.31674143 23.50582521 36.27039433 23.51257038 C39.30638538 23.51590775 42.34228899 23.50928503 45.37826347 23.49944115 C46.8363442 23.49558633 48.29443465 23.4944421 49.75251961 23.49602699 C51.78742779 23.49639685 53.82232326 23.48231827 55.85717773 23.4675293 C57.59566734 23.46061821 57.59566734 23.46061821 59.36927795 23.4535675 C62.24175775 23.47071336 62.24175775 23.47071336 64.09521484 21.19287109 C63.60021484 18.71787109 63.60021484 18.71787109 63.09521484 16.19287109 C40.65521484 16.19287109 18.21521484 16.19287109 -4.90478516 16.19287109 Z " fill="#000000" transform="translate(183.90478515625,28.80712890625)"/>
<path d="M0 0 C0.90562683 -0.00571014 1.81125366 -0.01142029 2.74432373 -0.01730347 C4.23118179 -0.01898026 4.23118179 -0.01898026 5.74807739 -0.02069092 C6.79386963 -0.02565582 7.83966187 -0.03062073 8.91714478 -0.03573608 C12.3830938 -0.05036329 15.84899708 -0.05716032 19.31497192 -0.06268311 C21.72009279 -0.06843367 24.12521364 -0.07419141 26.53033447 -0.07995605 C31.57589939 -0.09046734 36.62144837 -0.09630932 41.66702271 -0.09979248 C48.13584376 -0.10528039 54.60445467 -0.12931442 61.07320976 -0.15776443 C66.04199848 -0.17637622 71.0107364 -0.18159562 75.97955704 -0.18312836 C78.36460648 -0.18615822 80.74965496 -0.1941979 83.13467026 -0.20731354 C86.469511 -0.22434471 89.80383595 -0.22250083 93.13870239 -0.21600342 C94.12589264 -0.2252182 95.11308289 -0.23443298 96.13018799 -0.243927 C101.06064583 -0.21379479 104.62043051 -0.17542134 108.57278442 3.14044189 C110.01709297 6.02905899 109.94966948 7.93691891 109.57278442 11.14044189 C107.54526189 14.03694301 105.92279037 15.85842111 102.3699646 16.60061836 C99.56438369 16.78613748 96.79847577 16.80432939 93.98684692 16.77154541 C92.92125549 16.77870071 91.85566406 16.78585602 90.75778198 16.79322815 C87.23734599 16.81012928 83.71818081 16.79070278 80.19778442 16.76934814 C77.75068049 16.7701767 75.3035766 16.77263559 72.85647583 16.7766571 C67.72853844 16.7795161 62.60103758 16.7648031 57.47317505 16.73736572 C50.89888145 16.70328358 44.32536856 16.70930064 37.7510376 16.7280283 C32.6981251 16.73859493 27.64539437 16.72966336 22.59249878 16.71464348 C20.16839131 16.70945878 17.74426489 16.70994693 15.32015991 16.71618843 C11.93259842 16.72163627 8.54615594 16.7012774 5.15872192 16.67388916 C4.15597229 16.68041504 3.15322266 16.68694092 2.12008667 16.69366455 C-2.19885996 16.63426552 -4.76382919 16.52498883 -8.55758667 14.32585144 C-10.42721558 12.14044189 -10.42721558 12.14044189 -10.92721558 8.64044189 C-10.41739932 5.07172808 -9.99055129 3.60883925 -7.42721558 1.14044189 C-4.61899473 0.20436828 -2.90505145 0.010978 0 0 Z " fill="#000000" transform="translate(163.42721557617188,455.85955810546875)"/>
<path d="M0 0 C2.80618215 2.35357213 2.97918231 3.8542762 3.5 7.5 C3 11 3 11 0.9375 13.5 C-2.89378967 15.45640324 -4.8999226 15.13891039 -9 14 C-10.9375 12.9375 -10.9375 12.9375 -12 11 C-12.39309578 7.90437069 -12.62338668 5.95663395 -12 3 C-8.38525112 -1.49105164 -5.37641793 -1.59301272 0 0 Z " fill="#000000" transform="translate(404,302)"/>
</svg>
