<svg width="269" height="51" viewBox="0 0 269 51" fill="none" xmlns="http://www.w3.org/2000/svg">
<path d="M11.9333 11.0593C15.009 11.0593 17.6744 11.6441 19.9295 12.8139C22.1819 13.9864 23.9086 15.6593 25.1095 17.8325C26.3104 20.0084 26.9108 22.5697 26.9108 25.5163C26.9108 28.4601 26.3104 31.013 25.1095 33.1751C23.9086 35.3372 22.1819 36.9893 19.9295 38.1313C17.6744 39.2734 15.009 39.8444 11.9333 39.8444H3.15063V11.0593H11.9333ZM11.9333 36.7467C15.5769 36.7467 18.3564 35.7627 20.2718 33.7946C22.1873 31.8266 23.1451 29.0671 23.1451 25.5163C23.1451 21.9349 22.1805 19.1394 20.2515 17.1298C18.3224 15.1201 15.5497 14.1153 11.9333 14.1153H6.83488V36.7467H11.9333ZM33.1464 13.5415C32.4427 13.5415 31.849 13.2948 31.3654 12.8014C30.879 12.3052 30.6359 11.6982 30.6359 10.9803C30.6359 10.2651 30.879 9.65944 31.3654 9.16326C31.849 8.66986 32.4427 8.42316 33.1464 8.42316C33.8202 8.42316 34.3935 8.66986 34.8662 9.16326C35.339 9.65944 35.5754 10.2651 35.5754 10.9803C35.5754 11.6982 35.339 12.3052 34.8662 12.8014C34.3935 13.2948 33.8202 13.5415 33.1464 13.5415ZM31.2431 17.2171H34.9274V39.8485H31.2431V17.2171ZM49.8234 16.8471C51.7388 16.8471 53.4179 17.2739 54.8607 18.1277C56.3061 18.9814 57.3793 20.0556 58.0803 21.3501V17.2171H61.8053V40.3433C61.8053 42.4084 61.3733 44.2462 60.5093 45.8567C59.6453 47.4672 58.4105 48.727 56.8047 49.6362C55.199 50.5454 53.331 51 51.2009 51C48.2855 51 45.8565 50.2973 43.9139 48.892C41.9712 47.4894 40.8233 45.5767 40.4701 43.1541H44.1136C44.5184 44.5289 45.3552 45.6363 46.6241 46.4762C47.8929 47.3161 49.4185 47.7361 51.2009 47.7361C53.2223 47.7361 54.8743 47.0888 56.1567 45.7943C57.4391 44.5026 58.0803 42.6856 58.0803 40.3433V35.595C57.3522 36.9172 56.2722 38.0191 54.8403 38.9005C53.4112 39.782 51.7388 40.2228 49.8234 40.2228C47.8535 40.2228 46.0657 39.7266 44.46 38.7342C42.8542 37.7419 41.5922 36.3518 40.6738 34.5639C39.7555 32.7732 39.2963 30.7358 39.2963 28.4517C39.2963 26.14 39.7555 24.1095 40.6738 22.3604C41.5922 20.6113 42.8542 19.2559 44.46 18.294C46.0657 17.3294 47.8535 16.8471 49.8234 16.8471ZM58.0803 28.4933C58.0803 26.7858 57.7434 25.2987 57.0696 24.0319C56.3931 22.7651 55.4815 21.795 54.3349 21.1214C53.1883 20.4478 51.9277 20.111 50.5529 20.111C49.1753 20.111 47.9201 20.4409 46.7871 21.1006C45.6541 21.7603 44.7493 22.7236 44.0728 23.9903C43.399 25.2571 43.0621 26.7442 43.0621 28.4517C43.0621 30.187 43.399 31.6935 44.0728 32.9714C44.7493 34.252 45.6541 35.2305 46.7871 35.9069C47.9201 36.5804 49.1753 36.9172 50.5529 36.9172C51.9277 36.9172 53.1883 36.5804 54.3349 35.9069C55.4815 35.2305 56.3931 34.252 57.0696 32.9714C57.7434 31.6935 58.0803 30.2008 58.0803 28.4933ZM69.4143 13.5415C68.7133 13.5415 68.1197 13.2948 67.6333 12.8014C67.147 12.3052 66.9038 11.6982 66.9038 10.9803C66.9038 10.2651 67.147 9.65944 67.6333 9.16326C68.1197 8.66986 68.7133 8.42316 69.4143 8.42316C70.0881 8.42316 70.6614 8.66986 71.1342 9.16326C71.6069 9.65944 71.8433 10.2651 71.8433 10.9803C71.8433 11.6982 71.6069 12.3052 71.1342 12.8014C70.6614 13.2948 70.0881 13.5415 69.4143 13.5415ZM67.511 17.2171H71.1953V39.8485H67.511V17.2171Z" fill="white"/>
<path d="M79.3136 10.4148H86.9144C90.6693 10.4148 93.4121 11.1632 95.1428 12.66C96.8735 14.1541 97.7389 16.2954 97.7389 19.084C97.7389 20.3424 97.5365 21.5371 97.1317 22.6681C96.7268 23.799 96.0734 24.7942 95.1713 25.6535C94.2693 26.5128 93.0861 27.1891 91.6216 27.6825C90.1544 28.1759 88.3598 28.4226 86.2378 28.4226H82.6962V40.098H79.3136V10.4148ZM86.5965 13.3586H82.6962V25.458H85.8588C87.7172 25.458 89.2659 25.2557 90.5049 24.851C91.7466 24.4435 92.6785 23.7838 93.3007 22.8718C93.9256 21.9571 94.2381 20.7416 94.2381 19.2253C94.2381 17.249 93.6213 15.7771 92.3878 14.8097C91.1543 13.8423 89.2238 13.3586 86.5965 13.3586ZM113.242 17.4375C113.68 17.4375 114.137 17.4624 114.616 17.5123C115.094 17.5594 115.518 17.6232 115.887 17.7036L115.471 20.8303C115.113 20.7361 114.715 20.6612 114.277 20.6058C113.84 20.5531 113.428 20.5268 113.042 20.5268C112.168 20.5268 111.342 20.7056 110.565 21.0631C109.79 21.4207 109.111 21.9349 108.527 22.6057C107.943 23.2765 107.485 24.0818 107.153 25.0215C106.822 25.9639 106.656 27.0103 106.656 28.1607V40.098H103.331V17.8449H106.077L106.436 21.9446H106.575C107.026 21.1213 107.57 20.3674 108.209 19.6827C108.845 18.9981 109.584 18.4534 110.426 18.0487C111.268 17.6412 112.207 17.4375 113.242 17.4375ZM128.146 17.4749C130.746 17.4749 132.677 18.0708 133.938 19.2628C135.198 20.4547 135.829 22.3562 135.829 24.9674V40.0938H133.42L132.784 36.8049H132.625C132.014 37.6171 131.377 38.2962 130.714 38.8423C130.051 39.3911 129.285 39.8042 128.415 40.0814C127.546 40.3586 126.481 40.4972 125.22 40.4972C123.894 40.4972 122.718 40.2602 121.691 39.7862C120.661 39.3149 119.851 38.5984 119.262 37.6365C118.672 36.6747 118.377 35.4564 118.377 33.9817C118.377 31.7614 119.239 30.0567 120.961 28.8675C122.686 27.6756 125.314 27.0256 128.843 26.9175L132.605 26.7553V25.3957C132.605 23.4719 132.2 22.1248 131.39 21.3542C130.581 20.5836 129.44 20.1983 127.967 20.1983C126.826 20.1983 125.738 20.3674 124.702 20.7056C123.67 21.0437 122.689 21.4429 121.76 21.903L120.745 19.3418C121.726 18.829 122.854 18.3896 124.128 18.0237C125.402 17.6578 126.742 17.4749 128.146 17.4749ZM132.564 31.1793V29.1295L129.243 29.2708C126.523 29.3789 124.606 29.8321 123.492 30.6305C122.375 31.4288 121.817 32.5597 121.817 34.0233C121.817 35.2956 122.196 36.2353 122.954 36.8424C123.709 37.4522 124.711 37.7571 125.958 37.7571C127.895 37.7571 129.48 37.2096 130.714 36.1147C131.947 35.017 132.564 33.3719 132.564 31.1793ZM166.313 17.4375C168.715 17.4375 170.526 18.0778 171.746 19.3584C172.969 20.6363 173.58 22.6903 173.58 25.5204V40.098H170.316V25.6826C170.316 23.8808 169.934 22.5309 169.17 21.6328C168.407 20.7319 167.277 20.2815 165.78 20.2815C163.668 20.2815 162.136 20.9038 161.182 22.1484C160.226 23.3957 159.748 25.2307 159.748 27.6534V40.098H156.463V25.6826C156.463 24.4768 156.294 23.4747 155.958 22.6764C155.618 21.8781 155.114 21.2794 154.446 20.8802C153.774 20.481 152.928 20.2815 151.906 20.2815C150.461 20.2815 149.301 20.5864 148.426 21.1962C147.548 21.806 146.914 22.7097 146.523 23.9071C146.132 25.1046 145.936 26.5765 145.936 28.3228V40.098H142.635V17.8449H145.3L145.797 20.9925H145.977C146.414 20.2219 146.964 19.5718 147.627 19.0424C148.293 18.5157 149.036 18.1166 149.857 17.8449C150.68 17.5733 151.556 17.4375 152.485 17.4375C154.143 17.4375 155.532 17.7535 156.654 18.3855C157.774 19.0147 158.586 19.971 159.092 21.2544H159.271C159.988 19.971 160.97 19.0147 162.218 18.3855C163.465 17.7535 164.83 17.4375 166.313 17.4375ZM188.525 17.4749C191.125 17.4749 193.056 18.0708 194.316 19.2628C195.574 20.4547 196.203 22.3562 196.203 24.9674V40.0938H193.799L193.159 36.8049H193C192.391 37.6171 191.754 38.2962 191.088 38.8423C190.425 39.3911 189.661 39.8042 188.794 40.0814C187.924 40.3586 186.859 40.4972 185.599 40.4972C184.273 40.4972 183.095 40.2602 182.065 39.7862C181.038 39.3149 180.229 38.5984 179.636 37.6365C179.047 36.6747 178.752 35.4564 178.752 33.9817C178.752 31.7614 179.615 30.0567 181.34 28.8675C183.065 27.6756 185.692 27.0256 189.222 26.9175L192.979 26.7553V25.3957C192.979 23.4719 192.576 22.1248 191.769 21.3542C190.959 20.5836 189.818 20.1983 188.346 20.1983C187.204 20.1983 186.116 20.3674 185.081 20.7056C184.046 21.0437 183.064 21.4429 182.135 21.903L181.12 19.3418C182.103 18.829 183.231 18.3896 184.502 18.0237C185.777 17.6578 187.118 17.4749 188.525 17.4749ZM192.943 31.1793V29.1295L189.617 29.2708C186.897 29.3789 184.981 29.8321 183.867 30.6305C182.753 31.4288 182.196 32.5597 182.196 34.0233C182.196 35.2956 182.573 36.2353 183.329 36.8424C184.087 37.4522 185.089 37.7571 186.336 37.7571C188.271 37.7571 189.855 37.2096 191.088 36.1147C192.325 35.017 192.943 33.3719 192.943 31.1793ZM211.168 17.4749C213.769 17.4749 215.699 18.0708 216.96 19.2628C218.22 20.4547 218.851 22.3562 218.851 24.9674V40.0938H216.442L215.806 36.8049H215.647C215.036 37.6171 214.399 38.2962 213.736 38.8423C213.073 39.3911 212.307 39.8042 211.437 40.0814C210.568 40.3586 209.503 40.4972 208.242 40.4972C206.916 40.4972 205.74 40.2602 204.713 39.7862C203.683 39.3149 202.873 38.5984 202.284 37.6365C201.694 36.6747 201.399 35.4564 201.399 33.9817C201.399 31.7614 202.262 30.0567 203.987 28.8675C205.71 27.6756 208.336 27.0256 211.865 26.9175L215.627 26.7553V25.3957C215.627 23.4719 215.222 22.1248 214.413 21.3542C213.603 20.5836 212.462 20.1983 210.989 20.1983C209.848 20.1983 208.761 20.3674 207.729 20.7056C206.694 21.0437 205.711 21.4429 204.782 21.903L203.767 19.3418C204.748 18.829 205.876 18.3896 207.15 18.0237C208.424 17.6578 209.764 17.4749 211.168 17.4749ZM215.586 31.1793V29.1295L212.265 29.2708C209.545 29.3789 207.628 29.8321 206.514 30.6305C205.4 31.4288 204.843 32.5597 204.843 34.0233C204.843 35.2956 205.221 36.2353 205.976 36.8424C206.732 37.4522 207.733 37.7571 208.98 37.7571C210.917 37.7571 212.502 37.2096 213.736 36.1147C214.97 35.017 215.586 33.3719 215.586 31.1793ZM235.98 17.4375C238.567 17.4375 240.524 18.0847 241.853 19.3792C243.179 20.6709 243.842 22.7443 243.842 25.5994V40.098H240.577V25.8239C240.577 23.9695 240.163 22.5822 239.334 21.6619C238.506 20.7416 237.235 20.2815 235.524 20.2815C233.108 20.2815 231.41 20.9786 230.429 22.3729C229.446 23.7672 228.954 25.7907 228.954 28.4434V40.098H225.653V17.8449H228.318L228.815 21.0548H228.995C229.459 20.2676 230.05 19.6079 230.768 19.0757C231.482 18.5407 232.285 18.1346 233.176 17.8574C234.065 17.5774 234.999 17.4375 235.98 17.4375ZM26.3295 20.4116C26.2549 20.4116 26.1834 20.3814 26.1307 20.3276C26.0779 20.2738 26.0483 20.2008 26.0483 20.1247V13.6413C26.0483 6.9055 20.9498 1.43121 14.6817 1.43121C8.41357 1.43121 3.31511 6.90799 3.31511 13.6388C3.31511 13.7149 3.28548 13.7879 3.23275 13.8417C3.18001 13.8955 3.10848 13.9257 3.0339 13.9257C2.95932 13.9257 2.88778 13.8955 2.83505 13.8417C2.78231 13.7879 2.75269 13.7149 2.75269 13.6388C2.75269 6.59532 8.10384 0.857422 14.6817 0.857422C21.2596 0.857422 26.6107 6.59241 26.6107 13.6388V20.1251C26.6107 20.1628 26.6034 20.2001 26.5893 20.2349C26.5752 20.2697 26.5545 20.3013 26.5283 20.328C26.5022 20.3546 26.4712 20.3758 26.4371 20.3902C26.403 20.4046 26.3664 20.4116 26.3295 20.4116Z" fill="white"/>
<path d="M26.3296 22.2859L26.2819 22.2801C24.3896 21.9504 22.9612 20.1775 22.9612 18.1605V13.3801C22.9612 11.7078 22.5756 10.1328 21.8473 8.83014C19.3979 4.44065 14.7327 4.47225 14.685 4.47516C12.3286 4.4893 6.78262 5.41609 6.08 13.6475C6.05241 14.1044 5.92216 14.5488 5.69934 14.9462C5.47652 15.3436 5.16709 15.6834 4.79499 15.9393C4.27313 16.2766 3.67622 16.474 3.05964 16.5131C3.02271 16.5161 2.98556 16.5117 2.95032 16.5C2.91507 16.4884 2.88244 16.4698 2.85425 16.4452C2.82605 16.4207 2.80287 16.3908 2.78602 16.3571C2.76917 16.3235 2.75896 16.2868 2.75602 16.2491C2.75307 16.2114 2.75744 16.1735 2.76885 16.1375C2.78027 16.1016 2.7985 16.0683 2.82253 16.0395C2.84656 16.0108 2.87591 15.9871 2.9089 15.9699C2.94189 15.9527 2.97789 15.9423 3.01482 15.9393C3.57914 15.8955 4.07023 15.7339 4.48811 15.4545C4.78787 15.247 5.03685 14.9719 5.21585 14.6506C5.39485 14.3293 5.49907 13.9703 5.52044 13.6013C5.71158 11.3349 6.9428 3.95293 14.6765 3.90096C14.7242 3.89555 19.7244 3.86353 22.3368 8.54616C23.136 10.0256 23.545 11.6914 23.5236 13.3805V18.1576C23.5236 19.8989 24.7495 21.4282 26.3777 21.7126C26.4482 21.7235 26.512 21.7614 26.5562 21.8186C26.6004 21.8758 26.6216 21.948 26.6155 22.0206C26.6094 22.0931 26.5766 22.1606 26.5235 22.2093C26.4705 22.258 26.4013 22.2844 26.33 22.283" fill="white"/>
<path d="M26.3297 25.2498C25.1209 25.2498 23.9679 24.8278 22.8993 23.9958C21.0772 22.5642 19.9886 20.2146 19.9886 17.7045V13.1827C20.0081 12.06 19.7199 10.9541 19.1564 9.98948C18.748 9.32288 18.2029 8.75437 17.5588 8.323C16.6586 7.73868 15.6096 7.43793 14.5429 7.45834C13.4761 7.47875 12.4389 7.81941 11.5608 8.43776C9.44892 9.92379 9.0328 12.5632 8.97371 14.0035C8.96742 14.7105 8.77834 15.4032 8.42556 16.0118C6.97142 18.4504 4.71278 19.2333 3.07402 19.4628C3.00183 19.4697 2.92983 19.4479 2.87303 19.4019C2.81623 19.356 2.77904 19.2894 2.7692 19.2161C2.75937 19.1428 2.77765 19.0685 2.82025 19.0086C2.86284 18.9488 2.92646 18.908 2.9978 18.8949C4.51634 18.6828 6.60584 17.9568 7.94709 15.7099C8.24797 15.1861 8.40811 14.5907 8.41131 13.9836C8.47611 12.4343 8.9289 9.59407 11.2397 7.96708C12.2098 7.28274 13.3563 6.90574 14.5355 6.88332C15.7147 6.86091 16.8741 7.19409 17.8685 7.8411C18.5796 8.31913 19.181 8.94831 19.6316 9.68554C20.2516 10.7409 20.5701 11.9521 20.551 13.1823V17.7045C20.551 20.037 21.5552 22.2199 23.2396 23.5397C24.2145 24.2953 25.2446 24.6741 26.3301 24.676C26.4047 24.676 26.4762 24.7062 26.5289 24.76C26.5817 24.8138 26.6113 24.8868 26.6113 24.9629C26.6113 25.039 26.5817 25.112 26.5289 25.1658C26.4762 25.2196 26.4043 25.2498 26.3297 25.2498Z" fill="white"/>
<path d="M3.10172 28.17C2.94685 28.17 2.81807 28.044 2.81807 27.8831C2.81807 27.7222 2.93909 27.5962 3.09356 27.5962C5.37992 27.5962 7.51957 27.1376 9.46848 26.2253C12.3988 24.8541 13.729 23.1639 13.7429 23.1468L13.7657 23.1211C17.6631 19.1993 17.4744 14.7034 17.472 14.6577C17.5058 12.1417 16.4792 11.037 15.6103 10.5496C15.2946 10.3693 14.9417 10.2672 14.5802 10.2517C14.2187 10.2362 13.8587 10.3076 13.5293 10.4603C12.3201 11.0311 12.0222 12.4627 11.9521 13.266C11.8253 14.7088 11.5299 15.9258 11.0432 16.9844C10.0199 19.2076 8.6334 20.628 6.5553 21.5806C5.44956 22.0878 4.24965 22.3459 3.03731 22.3373C2.96273 22.3373 2.8912 22.3071 2.83846 22.2533C2.78573 22.1995 2.7561 22.1265 2.7561 22.0504C2.7561 21.9743 2.78573 21.9013 2.83846 21.8475C2.8912 21.7937 2.96273 21.7635 3.03731 21.7635C4.19883 21.7635 5.30329 21.5261 6.32461 21.0583C8.29879 20.1519 9.55853 18.8605 10.5346 16.7403C10.9899 15.7449 11.2711 14.5886 11.3921 13.2144C11.4708 12.2881 11.8253 10.6324 13.2901 9.93802C14.1052 9.55383 15.0759 9.59375 15.8829 10.0474C16.8843 10.6095 18.0707 11.8631 18.0344 14.646C18.0425 14.8206 18.2312 19.4201 14.1732 23.5169C14.0241 23.7036 12.6547 25.3647 9.7024 26.7447C7.62948 27.7023 5.37759 28.1897 3.10211 28.1733" fill="white"/>
<path d="M3.03387 25.2064C2.95929 25.209 2.88674 25.1813 2.83221 25.1293C2.77768 25.0773 2.74562 25.0054 2.74308 24.9293C2.74054 24.8532 2.76774 24.7792 2.81868 24.7236C2.86962 24.6679 2.94014 24.6352 3.01472 24.6326C6.84733 24.3487 9.78618 23.0319 11.7461 20.7109C14.7016 17.2137 14.398 12.6005 14.3952 12.5544C14.3918 12.5164 14.3959 12.4781 14.4072 12.4417C14.4185 12.4053 14.4368 12.3716 14.4609 12.3425C14.4851 12.3134 14.5148 12.2895 14.5481 12.2722C14.5814 12.2549 14.6178 12.2445 14.6551 12.2416C14.6924 12.2388 14.7298 12.2436 14.7653 12.2556C14.8008 12.2677 14.8335 12.2869 14.8617 12.312C14.8899 12.3371 14.9128 12.3677 14.9293 12.4019C14.9457 12.4362 14.9554 12.4735 14.9576 12.5115C14.9719 12.7095 15.2812 17.4087 12.174 21.0893C10.1069 23.5225 7.03887 24.9083 3.05098 25.2035L3.03387 25.2064ZM3.78783 31.3227C3.71325 31.325 3.64085 31.2969 3.58654 31.2447C3.53224 31.1925 3.5005 31.1204 3.49829 31.0443C3.49607 30.9682 3.52356 30.8944 3.57473 30.839C3.6259 30.7836 3.69656 30.7512 3.77114 30.7489C5.35733 30.6545 11.3218 29.2059 15.4976 25.5998C15.5501 25.5541 15.6172 25.5297 15.6862 25.5312C15.7552 25.5328 15.8212 25.5601 15.8717 25.6081C15.9194 25.6571 20.8887 30.3909 25.604 30.7348C25.677 30.7423 25.7441 30.7784 25.7914 30.8356C25.8386 30.8928 25.8622 30.9664 25.8571 31.041C25.852 31.1156 25.8187 31.1852 25.7641 31.2352C25.7096 31.2851 25.6381 31.3114 25.5649 31.3086C21.1161 30.9818 16.6367 27.0829 15.6663 26.1964C11.3496 29.8196 5.48082 31.2171 3.80497 31.3202L3.78783 31.3227Z" fill="white"/>
<path d="M5.39371 34.4275C5.32471 34.4254 5.25887 34.3976 5.20869 34.3492C5.15852 34.3009 5.12752 34.2353 5.12163 34.1652C5.11574 34.095 5.13537 34.0251 5.17675 33.9687C5.21813 33.9123 5.27839 33.8735 5.34605 33.8595C7.7506 33.4437 12.2805 32.3161 15.6102 29.4521C15.6607 29.4092 15.7244 29.3857 15.7901 29.3857C15.8559 29.3857 15.9196 29.4092 15.9701 29.4521C16.0096 29.4841 19.938 32.8491 24.0518 33.8537C24.0887 33.8616 24.1236 33.8771 24.1545 33.8991C24.1855 33.921 24.2118 33.9491 24.2319 33.9816C24.252 34.0142 24.2655 34.0505 24.2716 34.0884C24.2777 34.1263 24.2763 34.1652 24.2675 34.2025C24.2587 34.2399 24.2426 34.2751 24.2202 34.3061C24.1978 34.337 24.1696 34.363 24.1372 34.3826C24.1048 34.4023 24.0688 34.415 24.0315 34.4202C23.9941 34.4254 23.9561 34.4229 23.9198 34.4129C20.1377 33.4894 16.6283 30.7323 15.7932 30.0438C12.5593 32.7406 8.39166 33.914 5.4414 34.4246L5.39371 34.4275Z" fill="white"/>
<path d="M8.09053 37.2018C8.02319 37.2009 7.95838 37.1754 7.90788 37.13C7.85738 37.0845 7.82455 37.0221 7.81537 36.954C7.80619 36.8859 7.82127 36.8167 7.85785 36.759C7.89444 36.7013 7.95012 36.659 8.01474 36.6396C10.8411 35.8134 13.2477 34.5565 15.1713 32.8954C15.223 32.8517 15.2883 32.8282 15.3554 32.8293C15.4225 32.8303 15.487 32.8559 15.5373 32.9012C15.5654 32.9241 18.1497 35.2338 21.4285 36.5935C21.4833 36.6131 21.5309 36.6495 21.5646 36.6979C21.5984 36.7462 21.6166 36.804 21.6167 36.8633C21.6173 36.9006 21.6106 36.9377 21.597 36.9724C21.5834 37.0071 21.5632 37.0387 21.5376 37.0653C21.512 37.092 21.4815 37.1132 21.4477 37.1278C21.414 37.1424 21.3778 37.15 21.3412 37.1502C21.2999 37.1502 21.2624 37.1435 21.2288 37.1302C18.3213 35.9253 16.0068 34.0517 15.3519 33.4921C13.3973 35.1274 10.9846 36.3693 8.16961 37.1926L8.09053 37.2018ZM17.0159 38.1539H14.1113C14.0367 38.1539 13.9652 38.1237 13.9124 38.0699C13.8597 38.0161 13.8301 37.9431 13.8301 37.867C13.8301 37.7909 13.8597 37.718 13.9124 37.6642C13.9652 37.6103 14.0367 37.5801 14.1113 37.5801H17.0163C17.0909 37.5801 17.1624 37.6103 17.2152 37.6642C17.2679 37.718 17.2975 37.7909 17.2975 37.867C17.2975 37.9431 17.2679 38.0161 17.2152 38.0699C17.1624 38.1237 17.0905 38.1539 17.0159 38.1539ZM26.271 28.1874H26.2681C20.0815 28.096 17.7756 22.1626 17.7503 22.0999C17.7247 22.0289 17.7276 21.9506 17.7583 21.8818C17.789 21.813 17.8451 21.7594 17.9143 21.7325C17.9836 21.7057 18.0604 21.7078 18.1282 21.7385C18.1959 21.7691 18.249 21.8257 18.276 21.8961C18.296 21.9535 20.4752 27.5276 26.2763 27.6132C26.3132 27.6136 26.3497 27.6214 26.3837 27.6361C26.4177 27.6508 26.4485 27.6723 26.4743 27.6992C26.5002 27.7261 26.5206 27.7579 26.5344 27.7928C26.5483 27.8278 26.5552 27.8651 26.5548 27.9028C26.5545 27.9405 26.5469 27.9777 26.5324 28.0124C26.518 28.0471 26.497 28.0785 26.4706 28.1049C26.4442 28.1313 26.4131 28.1521 26.3788 28.1662C26.3446 28.1803 26.3079 28.1878 26.271 28.1874Z" fill="white"/>
</svg>
